<?xml version="1.0" encoding="UTF-8"?>
<svg version="1.1" xmlns="http://www.w3.org/2000/svg" width="472" height="112">
<path d="M0 0 C3.7580243 1.50144331 7.09380004 3.44137339 10.51171875 5.578125 C11.85575505 6.4014002 13.20081206 7.22301131 14.546875 8.04296875 C15.52358154 8.63827393 15.52358154 8.63827393 16.52001953 9.24560547 C19.62523209 11.10873301 22.81680196 12.80172684 26.0078125 14.51171875 C34.18336166 18.98949302 42.23797932 23.69270112 50.32421875 28.328125 C50.32421875 37.238125 50.32421875 46.148125 50.32421875 55.328125 C39.0740831 49.70305718 39.0740831 49.70305718 34.6953125 47.12890625 C33.24862183 46.28102539 33.24862183 46.28102539 31.77270508 45.41601562 C30.28226685 44.53719727 30.28226685 44.53719727 28.76171875 43.640625 C27.71975342 43.03283203 26.67778809 42.42503906 25.60424805 41.79882812 C20.75218494 38.9633956 15.92575997 36.09983033 11.16015625 33.12109375 C10.38873291 32.64567139 9.61730957 32.17024902 8.82250977 31.68041992 C7.40186414 30.80150156 5.99020288 29.90783186 4.58959961 28.99731445 C2.50446488 27.65828679 2.50446488 27.65828679 -0.67578125 26.328125 C-4.31771601 27.44410562 -7.54447013 29.27308084 -10.859375 31.12890625 C-11.8596875 31.68819824 -12.86 32.24749023 -13.890625 32.82373047 C-14.95410156 33.42330566 -16.01757812 34.02288086 -17.11328125 34.640625 C-18.20898438 35.25566895 -19.3046875 35.87071289 -20.43359375 36.50439453 C-29.03829273 41.35505841 -37.5601768 46.33798495 -46.03295898 51.4152832 C-46.89477783 51.93050537 -47.75659668 52.44572754 -48.64453125 52.9765625 C-49.40185547 53.43208496 -50.15917969 53.88760742 -50.93945312 54.35693359 C-52.67578125 55.328125 -52.67578125 55.328125 -53.67578125 55.328125 C-53.67578125 46.418125 -53.67578125 37.508125 -53.67578125 28.328125 C-50.04578125 26.306875 -46.41578125 24.285625 -42.67578125 22.203125 C-30.59538174 15.45745052 -18.63225543 8.52514676 -6.70922852 1.50463867 C-2.86520673 -0.71943877 -2.86520673 -0.71943877 0 0 Z " fill="#3A58EB" transform="translate(74.67578125,6.671875)"/>
<path d="M0 0 C2.71875 1.28417969 2.71875 1.28417969 5.5 2.921875 C6.54236816 3.52821777 7.58473633 4.13456055 8.65869141 4.75927734 C10.34360633 5.76313503 12.02850748 6.76701671 13.71258545 7.77227783 C15.46120311 8.81573725 17.21081652 9.85750161 18.9609375 10.8984375 C19.54571869 11.24762238 20.13049988 11.59680725 20.73300171 11.95657349 C24.61024407 14.24874392 28.55164606 16.31113951 32.6015625 18.2890625 C46.76627847 25.40612695 46.76627847 25.40612695 49.02441406 30.15380859 C50.27089064 35.39503075 49.86711434 39.98347152 48 45 C45.2266782 47.47507351 43.22337276 48.73784869 39.59375 49.515625 C35.76157836 48.75380775 32.76614912 46.79445683 29.5 44.75 C27.99692877 43.83846542 26.49297907 42.92837825 24.98828125 42.01953125 C24.1885791 41.53307129 23.38887695 41.04661133 22.56494141 40.54541016 C17.97531105 37.78009889 13.33320479 35.10716716 8.6875 32.4375 C7.78644531 31.91317383 6.88539062 31.38884766 5.95703125 30.84863281 C5.10882813 30.36104492 4.260625 29.87345703 3.38671875 29.37109375 C2.63608154 28.93724365 1.88544434 28.50339355 1.11206055 28.05639648 C-1.00885623 26.99557035 -2.64260156 26.27236413 -5 26 C-7.09522598 26.70172334 -7.09522598 26.70172334 -9.16796875 27.95703125 C-9.97113525 28.40570557 -10.77430176 28.85437988 -11.60180664 29.31665039 C-12.45508545 29.81028076 -13.30836426 30.30391113 -14.1875 30.8125 C-15.06720459 31.30935303 -15.94690918 31.80620605 -16.85327148 32.31811523 C-19.57783531 33.86364237 -22.29043124 35.42835177 -25 37 C-25.84143555 37.48662109 -26.68287109 37.97324219 -27.54980469 38.47460938 C-36.38651929 43.55642253 -36.38651929 43.55642253 -45 49 C-48.39459427 49.55047475 -50.00238363 48.99888073 -53.14453125 47.5234375 C-56 45 -56 45 -56.48461914 43.07763672 C-56.59128227 40.77525522 -56.52374702 38.54985774 -56.375 36.25 C-56.34792969 35.45722656 -56.32085937 34.66445312 -56.29296875 33.84765625 C-56.22247273 31.89726634 -56.11485499 29.94828099 -56 28 C-55.33806641 27.6189209 -54.67613281 27.2378418 -53.99414062 26.84521484 C-51.9863631 25.68898095 -49.97890771 24.53218758 -47.97167969 23.375 C-45.64049586 22.03122896 -43.3075991 20.69049418 -40.97363281 19.3515625 C-34.98987329 15.91353861 -29.03800147 12.43614176 -23.140625 8.8515625 C-22.06490234 8.20396973 -20.98917969 7.55637695 -19.88085938 6.88916016 C-17.82699959 5.64986142 -15.78105827 4.39732328 -13.74414062 3.13037109 C-12.81279297 2.57172363 -11.88144531 2.01307617 -10.921875 1.4375 C-9.70902832 0.69306641 -9.70902832 0.69306641 -8.47167969 -0.06640625 C-5.19719249 -1.3032335 -3.35508871 -0.92267637 0 0 Z " fill="#4D3DDE" transform="translate(77,42)"/>
<path d="M0 0 C6.36544087 3.65314907 6.36544087 3.65314907 8.33691406 4.79931641 C10.11793728 5.83292419 11.90590027 6.85367673 13.69482422 7.87353516 C14.82791016 8.52837891 15.96099609 9.18322266 17.12841797 9.85791016 C18.15854004 10.45265137 19.18866211 11.04739258 20.25 11.66015625 C22.86864586 13.37627042 24.88193136 15.16255027 26.99560547 17.45947266 C23.78075648 19.45122872 20.56284299 21.43732397 17.33544922 23.40869141 C15.46180379 24.55917544 13.59407323 25.71994487 11.74951172 26.91650391 C7.61586061 29.52190093 7.61586061 29.52190093 4.58935547 29.21728516 C1.84979481 28.41687135 -0.11059066 27.31024451 -2.50439453 25.77197266 C-5.82317773 23.74922408 -5.82317773 23.74922408 -9.56689453 23.89697266 C-10.77345703 24.67041016 -10.77345703 24.67041016 -12.00439453 25.45947266 C-13.34833897 26.20731271 -14.7035037 26.93520244 -16.06689453 27.64697266 C-16.71787109 28.01177734 -17.36884766 28.37658203 -18.03955078 28.75244141 C-20.52304963 29.646106 -21.50935016 29.25759188 -24.00439453 28.45947266 C-25.46960154 27.74198313 -26.91167477 26.97607881 -28.33251953 26.17431641 C-29.53134766 25.50239258 -29.53134766 25.50239258 -30.75439453 24.81689453 C-31.99189453 24.1140332 -31.99189453 24.1140332 -33.25439453 23.39697266 C-34.09486328 22.92453125 -34.93533203 22.45208984 -35.80126953 21.96533203 C-37.87138329 20.80089304 -39.93894467 19.63215816 -42.00439453 18.45947266 C-42.00439453 17.46947266 -42.00439453 16.47947266 -42.00439453 15.45947266 C-39.9440918 13.91308594 -39.9440918 13.91308594 -37.07080078 12.27978516 C-36.02859375 11.68037109 -34.98638672 11.08095703 -33.91259766 10.46337891 C-32.80851562 9.84333984 -31.70443359 9.22330078 -30.56689453 8.58447266 C-28.96297852 7.66601562 -28.96297852 7.66601562 -27.32666016 6.72900391 C-25.21530513 5.52288428 -23.09767495 4.32767702 -20.97363281 3.14404297 C-19.09902195 2.08049956 -17.2445284 0.97990504 -15.421875 -0.17041016 C-14.26969482 -0.88342285 -14.26969482 -0.88342285 -13.09423828 -1.61083984 C-12.44189209 -2.03381348 -11.7895459 -2.45678711 -11.11743164 -2.89257812 C-7.02953359 -4.14610573 -3.61572359 -1.85399121 0 0 Z " fill="#5B27D3" transform="translate(81.00439453125,79.54052734375)"/>
<path d="M0 0 C0 1.32 0 2.64 0 4 C1.65 4 3.3 4 5 4 C5 5.65 5 7.3 5 9 C4.34 9 3.68 9 3 9 C3 10.32 3 11.64 3 13 C7.60272162 11.22972246 10.7129243 9.81300782 14 6 C14.495 7.485 14.495 7.485 15 9 C18.3 9 21.6 9 25 9 C25 13.95 25 18.9 25 24 C26.98 24 28.96 24 31 24 C31 20.7 31 17.4 31 14 C30.01 14 29.02 14 28 14 C28 12.68 28 11.36 28 10 C30.5829465 9.72368479 33.16274443 9.47828726 35.75 9.25 C36.84441406 9.12818359 36.84441406 9.12818359 37.9609375 9.00390625 C41.45238797 8.71824212 43.52232748 8.68951286 46.5 10.625 C48.36006807 13.57010777 48.41452944 15.29488185 48.25 18.75 C48.21390625 19.73484375 48.1778125 20.7196875 48.140625 21.734375 C48.09421875 22.48203125 48.0478125 23.2296875 48 24 C49.485 24.495 49.485 24.495 51 25 C50.67 26.32 50.34 27.64 50 29 C47.66705225 29.04241723 45.33297433 29.04092937 43 29 C41.12175109 27.12175109 41.60897603 23.96064724 41.4375 21.4375 C41.35371094 20.23996094 41.26992188 19.04242188 41.18359375 17.80859375 C41.12300781 16.88175781 41.06242187 15.95492187 41 15 C40.01 15 39.02 15 38 15 C37.34 17.97 36.68 20.94 36 24 C36.99 24 37.98 24 39 24 C39 25.65 39 27.3 39 29 C34.41687916 29.11605098 29.83413551 29.18720362 25.25 29.25 C23.94804687 29.28351563 22.64609375 29.31703125 21.3046875 29.3515625 C20.05429687 29.36445312 18.80390625 29.37734375 17.515625 29.390625 C16.36352539 29.41157227 15.21142578 29.43251953 14.02441406 29.45410156 C10.36542561 28.90472164 9.23258605 27.88765621 7 25 C6.22870644 22.29058418 6.18916678 19.83750169 6 17 C5.34 17 4.68 17 4 17 C3.67 19.31 3.34 21.62 3 24 C3.66 24 4.32 24 5 24 C5 25.65 5 27.3 5 29 C1.7 29 -1.6 29 -5 29 C-5.33 28.34 -5.66 27.68 -6 27 C-7.65 27.33 -9.3 27.66 -11 28 C-11 27.34 -11 26.68 -11 26 C-11.99 25.67 -12.98 25.34 -14 25 C-15.6875 22.4375 -15.6875 22.4375 -17 20 C-17.33 21.32 -17.66 22.64 -18 24 C-17.34 24 -16.68 24 -16 24 C-16 25.65 -16 27.3 -16 29 C-19.3 29 -22.6 29 -26 29 C-26 27.35 -26 25.7 -26 24 C-25.34 24 -24.68 24 -24 24 C-24 19.05 -24 14.1 -24 9 C-24.66 9 -25.32 9 -26 9 C-26 7.35 -26 5.7 -26 4 C-22.37 4 -18.74 4 -15 4 C-13.99088542 6.57161458 -12.98177083 9.14322917 -11.97265625 11.71484375 C-11.2003782 13.92418533 -11.2003782 13.92418533 -10 15 C-9.61908203 13.75283203 -9.61908203 13.75283203 -9.23046875 12.48046875 C-8.88628906 11.39378906 -8.54210937 10.30710937 -8.1875 9.1875 C-7.85105469 8.10855469 -7.51460938 7.02960937 -7.16796875 5.91796875 C-5.51245409 1.78195051 -4.58698699 0 0 0 Z M-4 13 C-4.66 15.64 -5.32 18.28 -6 21 C-5.01 20.67 -4.02 20.34 -3 20 C-3 17.69 -3 15.38 -3 13 C-3.33 13 -3.66 13 -4 13 Z M13 15 C12.23283149 17.85078091 12.23283149 17.85078091 12 21 C13.04374022 23.04451019 13.04374022 23.04451019 15 24 C17.13745922 23.74853421 18.45925779 23.54074221 20 22 C19.71269945 19.66055264 19.38063221 17.3260857 19 15 C17.02 15 15.04 15 13 15 Z " fill="#090616" transform="translate(265,39)"/>
<path d="M0 0 C1.28841797 -0.01224609 2.57683594 -0.02449219 3.90429688 -0.03710938 C5.14115234 -0.03904297 6.37800781 -0.04097656 7.65234375 -0.04296875 C8.78534912 -0.04707764 9.91835449 -0.05118652 11.08569336 -0.05541992 C13.97369974 0.18025353 15.62249148 0.68386477 18.0625 2.1875 C18.7225 1.5275 19.3825 0.8675 20.0625 0.1875 C26.52403846 0.64903846 26.52403846 0.64903846 29.0625 3.1875 C29.2578125 6.0078125 29.2578125 6.0078125 29.1875 9.3125 C29.16945313 10.40820312 29.15140625 11.50390625 29.1328125 12.6328125 C29.10960937 13.47585937 29.08640625 14.31890625 29.0625 15.1875 C30.0525 15.1875 31.0425 15.1875 32.0625 15.1875 C32.0625 16.8375 32.0625 18.4875 32.0625 20.1875 C29.4225 20.1875 26.7825 20.1875 24.0625 20.1875 C24.00191406 19.34445313 23.94132812 18.50140625 23.87890625 17.6328125 C23.79511719 16.53710938 23.71132813 15.44140625 23.625 14.3125 C23.54378906 13.22195312 23.46257812 12.13140625 23.37890625 11.0078125 C23.23248297 8.24021029 23.23248297 8.24021029 22.0625 6.1875 C21.4025 6.1875 20.7425 6.1875 20.0625 6.1875 C19.7325 9.1575 19.4025 12.1275 19.0625 15.1875 C19.7225 15.1875 20.3825 15.1875 21.0625 15.1875 C21.0625 16.8375 21.0625 18.4875 21.0625 20.1875 C18.4225 20.1875 15.7825 20.1875 13.0625 20.1875 C12.5675 12.7625 12.5675 12.7625 12.0625 5.1875 C11.0725 5.5175 10.0825 5.8475 9.0625 6.1875 C8.7325 9.1575 8.4025 12.1275 8.0625 15.1875 C8.7225 15.1875 9.3825 15.1875 10.0625 15.1875 C10.0625 16.8375 10.0625 18.4875 10.0625 20.1875 C6.7625 20.1875 3.4625 20.1875 0.0625 20.1875 C0.0625 18.5375 0.0625 16.8875 0.0625 15.1875 C0.7225 15.1875 1.3825 15.1875 2.0625 15.1875 C2.0625 11.8875 2.0625 8.5875 2.0625 5.1875 C0.4125 5.1875 -1.2375 5.1875 -2.9375 5.1875 C-3.040625 6.30125 -3.14375 7.415 -3.25 8.5625 C-3.476875 9.75875 -3.70375 10.955 -3.9375 12.1875 C-4.9275 12.8475 -5.9175 13.5075 -6.9375 14.1875 C-6.133125 14.6 -5.32875 15.0125 -4.5 15.4375 C-1.9375 17.1875 -1.9375 17.1875 -0.875 19.0625 C-0.9375 21.1875 -0.9375 21.1875 -2.125 23.9375 C-6.04865473 27.07642378 -9.16534147 26.70522159 -14.0625 26.65625 C-17.23707415 26.13865639 -18.69203398 25.47039046 -20.9375 23.1875 C-21.1875 20 -21.1875 20 -20.9375 17.1875 C-20.2775 17.1875 -19.6175 17.1875 -18.9375 17.1875 C-19.04449219 16.36765625 -19.15148437 15.5478125 -19.26171875 14.703125 C-19.38160156 13.62546875 -19.50148438 12.5478125 -19.625 11.4375 C-19.75261719 10.37015625 -19.88023437 9.3028125 -20.01171875 8.203125 C-19.92642908 4.73767113 -19.38625877 3.58582667 -16.9375 1.1875 C-11.51974062 -0.61841979 -5.66886472 0.00282736 0 0 Z M-13.9375 5.1875 C-13.6075 6.8375 -13.2775 8.4875 -12.9375 10.1875 C-11.6175 9.8575 -10.2975 9.5275 -8.9375 9.1875 C-8.9375 7.8675 -8.9375 6.5475 -8.9375 5.1875 C-10.5875 5.1875 -12.2375 5.1875 -13.9375 5.1875 Z M-14.9375 19.1875 C-14.6075 20.1775 -14.2775 21.1675 -13.9375 22.1875 C-12.2875 22.1875 -10.6375 22.1875 -8.9375 22.1875 C-8.6075 21.1975 -8.2775 20.2075 -7.9375 19.1875 C-10.2475 19.1875 -12.5575 19.1875 -14.9375 19.1875 Z " fill="#090616" transform="translate(358.9375,47.8125)"/>
<path d="M0 0 C2.56428515 -0.13559675 5.12135216 -0.23433188 7.6875 -0.3125 C8.40873047 -0.35439453 9.12996094 -0.39628906 9.87304688 -0.43945312 C13.97710646 -0.53315312 15.56660866 -0.32092543 18.98046875 2.20703125 C21.68423577 5.94628351 21.72489787 8.14078957 21.484375 12.6171875 C21 15 21 15 18.875 18.125 C15.54795388 20.29481269 13.895203 20.5193604 10 20 C9.34 19.67 8.68 19.34 8 19 C8 19.99 8 20.98 8 22 C8.66 22 9.32 22 10 22 C10 23.32 10 24.64 10 26 C6.7 26 3.4 26 0 26 C0 24.68 0 23.36 0 22 C0.66 22 1.32 22 2 22 C2 16.39 2 10.78 2 5 C1.34 5 0.68 5 0 5 C0 3.35 0 1.7 0 0 Z M8 7 C7.74994614 9.95817107 7.74994614 9.95817107 8 13 C8.66 13.66 9.32 14.32 10 15 C12.78237655 14.59471099 12.78237655 14.59471099 15 13 C15.16666667 10 15.16666667 10 15 7 C13.9404123 5.71677453 13.9404123 5.71677453 11.5 5.875 C9.0595877 5.71677453 9.0595877 5.71677453 8 7 Z " fill="#0A0717" transform="translate(202,48)"/>
<path d="M0 0 C1.15886719 0.01546875 2.31773437 0.0309375 3.51171875 0.046875 C6.3125 0.25 6.3125 0.25 7.3125 1.25 C7.45365161 3.92058851 7.35497107 6.57432238 7.3125 9.25 C5.6625 9.25 4.0125 9.25 2.3125 9.25 C2.3125 7.6 2.3125 5.95 2.3125 4.25 C0.3325 4.58 -1.6475 4.91 -3.6875 5.25 C-4.0175 6.24 -4.3475 7.23 -4.6875 8.25 C-4.08421875 8.40855469 -3.4809375 8.56710938 -2.859375 8.73046875 C1.07463531 9.87894595 3.82552997 10.82100259 6.9375 13.5625 C8.3125 16.25 8.3125 16.25 8.4375 19.375 C7.3125 22.25 7.3125 22.25 4.75 24.125 C-0.82917953 25.9509133 -5.97339259 25.67852685 -11.6875 24.25 C-11.6875 21.61 -11.6875 18.97 -11.6875 16.25 C-9.7075 16.25 -7.7275 16.25 -5.6875 16.25 C-5.6875 17.57 -5.6875 18.89 -5.6875 20.25 C-3.3775 19.59 -1.0675 18.93 1.3125 18.25 C-1.31456425 15.62293575 -4.16274591 14.77092772 -7.59375 13.4453125 C-10.10104947 12.01390646 -10.74232115 10.9453177 -11.6875 8.25 C-11.53910022 5.20780457 -11.21966224 3.78216224 -9.05078125 1.61328125 C-5.902211 -0.20300142 -3.61110697 -0.08087586 0 0 Z " fill="#0A0717" transform="translate(147.6875,42.75)"/>
<path d="M0 0 C0 4.95 0 9.9 0 15 C0.66 15 1.32 15 2 15 C2 16.65 2 18.3 2 20 C-0.56428515 20.13559675 -3.12135216 20.23433188 -5.6875 20.3125 C-6.40873047 20.35439453 -7.12996094 20.39628906 -7.87304688 20.43945312 C-11.97654751 20.53314035 -13.56986042 20.31712251 -16.98828125 17.796875 C-19.14056396 14.80457515 -19.63431438 13.55839187 -19.5 9.9375 C-19.4896875 9.10089844 -19.479375 8.26429687 -19.46875 7.40234375 C-18.90887629 4.53299098 -17.99791365 3.11571517 -16 1 C-10.83608171 -0.7213061 -5.40708764 -0.05353552 0 0 Z M-13 7 C-13.25005386 9.95817107 -13.25005386 9.95817107 -13 13 C-12.34 13.66 -11.68 14.32 -11 15 C-8.21762345 14.59471099 -8.21762345 14.59471099 -6 13 C-5.83333333 10 -5.83333333 10 -6 7 C-7.0595877 5.71677453 -7.0595877 5.71677453 -9.5 5.875 C-11.9404123 5.71677453 -11.9404123 5.71677453 -13 7 Z " fill="#090616" transform="translate(335,48)"/>
<path d="M0 0 C2.15103217 2.20605858 2.94263279 3.49516854 3.29296875 6.578125 C3.25816406 7.45984375 3.22335937 8.3415625 3.1875 9.25 C3.16042969 10.14203125 3.13335937 11.0340625 3.10546875 11.953125 C3.07066406 12.62859375 3.03585937 13.3040625 3 14 C3.66 14 4.32 14 5 14 C5 15.65 5 17.3 5 19 C2.36 19 -0.28 19 -3 19 C-3.33 14.38 -3.66 9.76 -4 5 C-5.32 5.33 -6.64 5.66 -8 6 C-8.33 8.64 -8.66 11.28 -9 14 C-8.01 14 -7.02 14 -6 14 C-6 15.65 -6 17.3 -6 19 C-9.63 19 -13.26 19 -17 19 C-17 17.35 -17 15.7 -17 14 C-16.34 14 -15.68 14 -15 14 C-15 10.7 -15 7.4 -15 4 C-15.66 4 -16.32 4 -17 4 C-17 2.68 -17 1.36 -17 0 C-5.61320755 -1.48921833 -5.61320755 -1.48921833 0 0 Z " fill="#090615" transform="translate(427,49)"/>
<path d="M0 0 C2.8125 1.5 2.8125 1.5 5 4 C5.7094525 6.73347877 5.85759646 9.15192916 6 12 C0.06 12.495 0.06 12.495 -6 13 C-1.65055731 13.86988854 -0.02871475 14.03595522 4 13 C4.33 14.32 4.66 15.64 5 17 C2.33955924 19.66044076 0.88515098 20.012761 -2.9375 20.4375 C-7.02528187 20.29259728 -9.12399716 18.96315444 -12 16 C-13.6020886 12.79582279 -13.49285215 9.47660568 -13 6 C-9.64166825 0.55718648 -6.28362262 -0.62836226 0 0 Z M-5 5 C-5.99 6.485 -5.99 6.485 -7 8 C-4.69 8 -2.38 8 0 8 C-0.33 7.01 -0.66 6.02 -1 5 C-2.32 5 -3.64 5 -5 5 Z " fill="#080616" transform="translate(404,48)"/>
<path d="M0 0 C2 1 2 1 2.6328125 2.84765625 C2.87644531 3.94400391 2.87644531 3.94400391 3.125 5.0625 C3.29257812 5.79597656 3.46015625 6.52945313 3.6328125 7.28515625 C3.75398438 7.85105469 3.87515625 8.41695312 4 9 C1 9 1 9 -2 8 C-2.33 7.01 -2.66 6.02 -3 5 C-3.33 5 -3.66 5 -4 5 C-4 7.31 -4 9.62 -4 12 C-3.34 12.33 -2.68 12.66 -2 13 C-2 16.66666667 -2 20.33333333 -2 24 C-1.37351562 23.7834375 -0.74703125 23.566875 -0.1015625 23.34375 C0.71570313 23.0653125 1.53296875 22.786875 2.375 22.5 C3.18710937 22.2215625 3.99921875 21.943125 4.8359375 21.65625 C7 21 7 21 9 21 C9 20.34 9 19.68 9 19 C9.9590625 18.566875 9.9590625 18.566875 10.9375 18.125 C13.15206079 17.17176549 13.15206079 17.17176549 14 15 C14.66 15 15.32 15 16 15 C15.67 14.01 15.34 13.02 15 12 C19.67209049 10.56976822 24.13103697 9.59619955 29 9 C29 7.35 29 5.7 29 4 C29.495 5.485 29.495 5.485 30 7 C30.99 7 31.98 7 33 7 C33.33 6.01 33.66 5.02 34 4 C37.22791555 1.8480563 38.28400809 1.79913557 42 2 C39.44084745 4.89403091 36.53055174 6.55393972 33.1796875 8.44140625 C32.60770126 8.765681 32.03571503 9.08995575 31.44639587 9.42405701 C29.59169207 10.47456653 27.73337533 11.51850179 25.875 12.5625 C23.33344339 13.99920024 20.79370567 15.43910252 18.25390625 16.87890625 C17.62826279 17.23296539 17.00261932 17.58702454 16.35801697 17.95181274 C10.43091142 21.31044908 4.55894835 24.75918661 -1.28759766 28.25610352 C-5.89887645 31 -5.89887645 31 -7 31 C-7 22.09 -7 13.18 -7 4 C-4.69 2.68 -2.38 1.36 0 0 Z " fill="#3D51CC" transform="translate(28,31)"/>
<path d="M0 0 C0 2.64 0 5.28 0 8 C-1.65 8 -3.3 8 -5 8 C-5 6.68 -5 5.36 -5 4 C-6.65 4.33 -8.3 4.66 -10 5 C-10 7.64 -10 10.28 -10 13 C-6.7 12.67 -3.4 12.34 0 12 C0.33 13.65 0.66 15.3 1 17 C-2.69917441 19.46611627 -6.70317044 19.71613826 -11 19 C-13.8100346 17.20636089 -15.50940468 15.98119065 -17 13 C-17.57884232 5.93812375 -17.57884232 5.93812375 -15.1875 2.0625 C-10.8904062 -1.98904558 -5.40469648 -1.80156549 0 0 Z " fill="#0A0718" transform="translate(174,49)"/>
<path d="M0 0 C3.465 1.485 3.465 1.485 7 3 C7 11.91 7 20.82 7 30 C0.99442041 26.9972102 -4.51087898 24.21125681 -10.125 20.6875 C-11.24132812 19.99011719 -12.35765625 19.29273437 -13.5078125 18.57421875 C-14.33023438 18.05472656 -15.15265625 17.53523438 -16 17 C-13.19502292 15.59751146 -10.9706474 16.35062248 -7.97265625 16.84375 C-5.78748054 17.14590964 -5.78748054 17.14590964 -3 16 C-3 16.66 -3 17.32 -3 18 C-1.68 18 -0.36 18 1 18 C1.33 16.68 1.66 15.36 2 14 C2.66 14 3.32 14 4 14 C4 13.34 4 12.68 4 12 C3.34 12 2.68 12 2 12 C2 10.68 2 9.36 2 8 C1.34 8 0.68 8 0 8 C0 7.01 0 6.02 0 5 C0.66 5 1.32 5 2 5 C2 4.01 2 3.02 2 2 C1.34 2 0.68 2 0 2 C0 1.34 0 0.68 0 0 Z " fill="#434AE5" transform="translate(118,32)"/>
<path d="M0 0 C1.98 0 3.96 0 6 0 C6 1.65 6 3.3 6 5 C7.65 5 9.3 5 11 5 C11 6.65 11 8.3 11 10 C9.35 10 7.7 10 6 10 C6 12.97 6 15.94 6 19 C7.65 19 9.3 19 11 19 C11.33 20.65 11.66 22.3 12 24 C9.04335481 25.4783226 6.25770263 25.06032783 3 25 C-0.16727335 19.8531808 -0.35050464 15.841744 0 10 C-0.99 10 -1.98 10 -3 10 C-2.67 8.35 -2.34 6.7 -2 5 C-1.34 5 -0.68 5 0 5 C0 3.35 0 1.7 0 0 Z " fill="#080616" transform="translate(434,43)"/>
<path d="M0 0 C1.98 0 3.96 0 6 0 C6 1.65 6 3.3 6 5 C7.65 5 9.3 5 11 5 C11 6.65 11 8.3 11 10 C9.35 10 7.7 10 6 10 C6.33 12.64 6.66 15.28 7 18 C8.32 18.33 9.64 18.66 11 19 C11.38218767 20.65614657 11.71395102 22.32457024 12 24 C11 25 11 25 7.625 25.25 C4 25 4 25 2.125 23.6875 C0.05896325 20.58844487 -0.11479534 17.9208786 -0.0625 14.3125 C-0.05347656 13.50425781 -0.04445312 12.69601563 -0.03515625 11.86328125 C-0.01775391 10.94095703 -0.01775391 10.94095703 0 10 C-0.66 10 -1.32 10 -2 10 C-2 8.35 -2 6.7 -2 5 C-1.34 5 -0.68 5 0 5 C0 3.35 0 1.7 0 0 Z " fill="#090617" transform="translate(226,43)"/>
<path d="M0 0 C5 0 10 0 15 0 C15 1.98 15 3.96 15 6 C14.21625 6.185625 13.4325 6.37125 12.625 6.5625 C9.60623658 7.83961627 9.60623658 7.83961627 8.6875 11.625 C8.460625 12.73875 8.23375 13.8525 8 15 C8.66 15 9.32 15 10 15 C10 16.65 10 18.3 10 20 C6.7 20 3.4 20 0 20 C0 18.35 0 16.7 0 15 C0.66 15 1.32 15 2 15 C2 11.7 2 8.4 2 5 C1.34 5 0.68 5 0 5 C0 3.35 0 1.7 0 0 Z " fill="#0A0718" transform="translate(176,48)"/>
<path d="M0 0 C2.64 1.32 5.28 2.64 8 4 C8.16225719 6.75236274 8.2809328 9.49517476 8.375 12.25 C8.42527344 13.02730469 8.47554687 13.80460937 8.52734375 14.60546875 C8.58557554 16.87650837 8.54561282 18.79290092 8 21 C5.24599521 23.58733592 3.28004399 24.72272663 -0.3984375 25.51953125 C-4.27386347 24.74560985 -7.31894761 22.75287132 -10.625 20.6875 C-12.1257226 19.77638857 -13.62704955 18.86627203 -15.12890625 17.95703125 C-15.91539551 17.4770166 -16.70188477 16.99700195 -17.51220703 16.50244141 C-21.82586889 13.89731137 -26.19597381 11.39014881 -30.5625 8.875 C-32.18888694 7.93504264 -33.81519658 6.99495152 -35.44140625 6.0546875 C-36.62755344 5.36970382 -37.81373038 4.68477163 -39 4 C-38.34 3.01 -37.68 2.02 -37 1 C-34 2 -34 2 -32 4 C-31.34 4.33 -30.68 4.66 -30 5 C-29.731875 5.66 -29.46375 6.32 -29.1875 7 C-28.795625 7.66 -28.40375 8.32 -28 9 C-25.51599015 9.66347631 -25.51599015 9.66347631 -23 10 C-22.34 10.66 -21.68 11.32 -21 12 C-18.43229715 13.05527888 -15.83127811 13.97514248 -13.21484375 14.90234375 C-12.48394531 15.26457031 -11.75304687 15.62679687 -11 16 C-10.67 16.99 -10.34 17.98 -10 19 C-9.01 18.67 -8.02 18.34 -7 18 C-7 18.99 -7 19.98 -7 21 C-5.58456585 21.19658808 -4.16755969 21.38187546 -2.75 21.5625 C-1.96109375 21.66691406 -1.1721875 21.77132812 -0.359375 21.87890625 C2.30429051 22.13072064 2.30429051 22.13072064 6 21 C6 15.72 6 10.44 6 5 C4.68 4.34 3.36 3.68 2 3 C1.34 2.67 0.68 2.34 0 2 C0 1.34 0 0.68 0 0 Z " fill="#4B34B3" transform="translate(117,66)"/>
<path d="M0 0 C2.64 0 5.28 0 8 0 C8 4.95 8 9.9 8 15 C8.66 15 9.32 15 10 15 C10 16.65 10 18.3 10 20 C6.7 20 3.4 20 0 20 C0 18.35 0 16.7 0 15 C0.66 15 1.32 15 2 15 C2 11.7 2 8.4 2 5 C1.34 5 0.68 5 0 5 C0 3.35 0 1.7 0 0 Z " fill="#0A0717" transform="translate(192,48)"/>
<path d="M0 0 C0.33 0 0.66 0 1 0 C1 2.97 1 5.94 1 9 C1.66 8.67 2.32 8.34 3 8 C3.33 7.01 3.66 6.02 4 5 C4.99 5 5.98 5 7 5 C6.67 7.97 6.34 10.94 6 14 C6.66 14.33 7.32 14.66 8 15 C8 15.66 8 16.32 8 17 C12.68507067 15.30603802 12.68507067 15.30603802 16.5625 12.375 C18.74460364 10.28777044 21.08207576 10.3242138 24 10 C24 9.34 24 8.68 24 8 C25.65 8 27.3 8 29 8 C25.22583991 11.17372553 21.26199788 13.79115507 17 16.25 C16.39671875 16.61351563 15.7934375 16.97703125 15.171875 17.3515625 C11.67008942 19.37650807 9.06476386 20.64863253 5 20 C2.75567018 18.12972515 1.30556798 16.61113596 0 14 C-0.07116382 11.62597499 -0.08409085 9.24999323 -0.0625 6.875 C-0.05347656 5.59367187 -0.04445313 4.31234375 -0.03515625 2.9921875 C-0.02355469 2.00476563 -0.01195313 1.01734375 0 0 Z " fill="#5333CF" transform="translate(22,71)"/>
<path d="M0 0 C2 1 2 1 2.6328125 2.84765625 C2.87644531 3.94400391 2.87644531 3.94400391 3.125 5.0625 C3.29257812 5.79597656 3.46015625 6.52945313 3.6328125 7.28515625 C3.75398438 7.85105469 3.87515625 8.41695312 4 9 C1 9 1 9 -2 8 C-2.33 7.01 -2.66 6.02 -3 5 C-3.33 5 -3.66 5 -4 5 C-4 7.31 -4 9.62 -4 12 C-3.34 12.33 -2.68 12.66 -2 13 C-1.6847405 18.98993047 -2.31780178 22.63560356 -5 28 C-5.66 28 -6.32 28 -7 28 C-7 20.08 -7 12.16 -7 4 C-4.69 2.68 -2.38 1.36 0 0 Z " fill="#3C55E3" transform="translate(28,31)"/>
<path d="M0 0 C1.375 2.125 1.375 2.125 2 4 C2.66 4 3.32 4 4 4 C4.33 5.32 4.66 6.64 5 8 C3.68 8 2.36 8 1 8 C0.67 7.01 0.34 6.02 0 5 C-0.66 4.67 -1.32 4.34 -2 4 C-2.33 5.32 -2.66 6.64 -3 8 C-4.32 7.67 -5.64 7.34 -7 7 C-7 6.01 -7 5.02 -7 4 C-7.391875 4.474375 -7.78375 4.94875 -8.1875 5.4375 C-10.40808374 7.35179633 -12.13375709 7.61266988 -15 8 C-14.360625 7.236875 -13.72125 6.47375 -13.0625 5.6875 C-10.85767219 3.11753287 -10.85767219 3.11753287 -10 0 C-6.42108585 -2.78359989 -3.90290269 -1.86660563 0 0 Z " fill="#3068F3" transform="translate(78,8)"/>
<path d="M0 0 C2.37914645 1.24486074 3.91603045 2.29841221 5.60546875 4.36328125 C2.13605329 3.90505657 -1.06848174 3.47196442 -4.39453125 2.36328125 C-4.72453125 3.02328125 -5.05453125 3.68328125 -5.39453125 4.36328125 C-4.73453125 4.69328125 -4.07453125 5.02328125 -3.39453125 5.36328125 C-6.88841835 8.57801757 -10.60782281 9.26607648 -15.14453125 10.05078125 C-15.84191406 10.18033203 -16.53929687 10.30988281 -17.2578125 10.44335938 C-18.96829014 10.75968058 -20.6811985 11.06280872 -22.39453125 11.36328125 C-19.20490317 7.97838228 -15.57698343 5.8724171 -11.58203125 3.55078125 C-10.88271484 3.11830078 -10.18339844 2.68582031 -9.46289062 2.24023438 C-4.22533004 -0.79255328 -4.22533004 -0.79255328 0 0 Z " fill="#5232C6" transform="translate(75.39453125,76.63671875)"/>
<path d="M0 0 C0.33 0 0.66 0 1 0 C1 5.28 1 10.56 1 16 C-7.0327174 12.16347826 -14.48288836 7.74826958 -22 3 C-19.06317146 1.53158573 -17.13175678 2.23303916 -14 3 C-12.3125 4.5 -12.3125 4.5 -11 6 C-10.01 6.33 -9.02 6.66 -8 7 C-8 7.66 -8 8.32 -8 9 C-7.34 9 -6.68 9 -6 9 C-6 9.66 -6 10.32 -6 11 C-4.35 11 -2.7 11 -1 11 C-1.01160156 10.28972656 -1.02320312 9.57945313 -1.03515625 8.84765625 C-1.04417969 7.92855469 -1.05320312 7.00945313 -1.0625 6.0625 C-1.07410156 5.14597656 -1.08570312 4.22945312 -1.09765625 3.28515625 C-1 1 -1 1 0 0 Z " fill="#4646C8" transform="translate(124,46)"/>
<path d="M0 0 C0.33 1.65 0.66 3.3 1 5 C-0.65 5.66 -2.3 6.32 -4 7 C-4 7.66 -4 8.32 -4 9 C-4.99 9 -5.98 9 -7 9 C-7.33 9.99 -7.66 10.98 -8 12 C-9.98 12.33 -11.96 12.66 -14 13 C-11.45945401 7.28377153 -6.76588115 0 0 0 Z " fill="#6121D3" transform="translate(99,94)"/>
<path d="M0 0 C3 1 3 1 5 3 C5.66 3.33 6.32 3.66 7 4 C7.268125 4.66 7.53625 5.32 7.8125 6 C8.204375 6.66 8.59625 7.32 9 8 C11.48400985 8.66347631 11.48400985 8.66347631 14 9 C14.66 9.66 15.32 10.32 16 11 C18.56770285 12.05527888 21.16872189 12.97514248 23.78515625 13.90234375 C24.51605469 14.26457031 25.24695313 14.62679687 26 15 C26.33 15.99 26.66 16.98 27 18 C27.99 17.67 28.98 17.34 30 17 C30 17.66 30 18.32 30 19 C25.18142216 18.46635671 21.88989793 17.07375175 17.7265625 14.62109375 C17.15795502 14.28956802 16.58934753 13.9580423 16.00350952 13.61647034 C14.2054393 12.56544771 12.41525267 11.50177268 10.625 10.4375 C9.40023964 9.7185485 8.17498357 9.00044075 6.94921875 8.28320312 C3.96035149 6.53185524 0.97841078 4.76908588 -2 3 C-1.34 2.01 -0.68 1.02 0 0 Z " fill="#4E37BF" transform="translate(80,67)"/>
<path d="M0 0 C1.81325551 0.11351517 3.62563357 0.24112961 5.4375 0.375 C6.95150391 0.47941406 6.95150391 0.47941406 8.49609375 0.5859375 C9.73552734 0.79089844 9.73552734 0.79089844 11 1 C11.33 1.66 11.66 2.32 12 3 C11.67 3.99 11.34 4.98 11 6 C12.299375 6.0928125 12.299375 6.0928125 13.625 6.1875 C17.97418189 7.23452527 19.6786082 9.04765173 23 12 C23.99 12.33 24.98 12.66 26 13 C26 13.66 26 14.32 26 15 C19.92815363 13.39630636 14.93496211 10.17574365 9.625 6.9375 C8.69816406 6.38255859 7.77132812 5.82761719 6.81640625 5.25585938 C1.79290878 2.21882593 1.79290878 2.21882593 0 1 C0 0.67 0 0.34 0 0 Z " fill="#4051D1" transform="translate(76,33)"/>
<path d="M0 0 C0.33 0.66 0.66 1.32 1 2 C1.7425 1.938125 2.485 1.87625 3.25 1.8125 C6.47519908 2.03239994 7.69723426 2.78252188 10 5 C10 5.66 10 6.32 10 7 C15.445 7.495 15.445 7.495 21 8 C20.01 8.99 19.02 9.98 18 11 C14.19453213 10.77142482 11.65866338 9.34227489 8.5 7.3125 C5.10260083 5.2266442 5.10260083 5.2266442 1.25 5.5625 C0.5075 6.036875 -0.235 6.51125 -1 7 C-2.66666667 7.66666667 -4.33333333 8.33333333 -6 9 C-6 8.34 -6 7.68 -6 7 C-4.68 6.67 -3.36 6.34 -2 6 C-2 4.35 -2 2.7 -2 1 C-1.34 0.67 -0.68 0.34 0 0 Z " fill="#5523B4" transform="translate(70,98)"/>
<path d="M0 0 C0 0.66 0 1.32 0 2 C-0.66 2.66 -1.32 3.32 -2 4 C-0.68 4.66 0.64 5.32 2 6 C2 5.34 2 4.68 2 4 C3.32 4.66 4.64 5.32 6 6 C6 6.99 6 7.98 6 9 C7.32 9 8.64 9 10 9 C10 9.99 10 10.98 10 12 C11.32 12 12.64 12 14 12 C14 12.66 14 13.32 14 14 C15.65 14 17.3 14 19 14 C18.34 14.66 17.68 15.32 17 16 C13.862456 15.60718742 11.39959125 14.25405506 8.671875 12.71484375 C7.87265625 12.26689453 7.0734375 11.81894531 6.25 11.35742188 C5.0125 10.65456055 5.0125 10.65456055 3.75 9.9375 C2.90953125 9.46505859 2.0690625 8.99261719 1.203125 8.50585938 C-0.86698876 7.34142039 -2.93455014 6.1726855 -5 5 C-5 4.01 -5 3.02 -5 2 C-2 0 -2 0 0 0 Z " fill="#5324B8" transform="translate(44,93)"/>
<path d="M0 0 C-7.26 4.29 -14.52 8.58 -22 13 C-22.33 12.01 -22.66 11.02 -23 10 C-22.34 9.67 -21.68 9.34 -21 9 C-20.34786708 6.97536745 -20.34786708 6.97536745 -20 5 C-19.01 5.33 -18.02 5.66 -17 6 C-14.65175298 5.0355414 -12.31808364 4.03485877 -10 3 C-9.01 3 -8.02 3 -7 3 C-7 2.34 -7 1.68 -7 1 C-3.375 -1.125 -3.375 -1.125 0 0 Z " fill="#4140C4" transform="translate(44,49)"/>
<path d="M0 0 C3.42559084 1.20358597 5.53258609 2.35892646 8 5 C5.92062051 6.31914392 3.83691981 7.63038213 1.75 8.9375 C1.16347656 9.31068359 0.57695313 9.68386719 -0.02734375 10.06835938 C-2.95906265 11.8965661 -5.55480229 13.46275382 -9 14 C-8.67 13.01 -8.34 12.02 -8 11 C-7.01 11 -6.02 11 -5 11 C-5 10.34 -5 9.68 -5 9 C0.41176471 5 0.41176471 5 3 5 C2.01 3.35 1.02 1.7 0 0 Z " fill="#5023BD" transform="translate(100,92)"/>
<path d="M0 0 C0.99 0 1.98 0 3 0 C3.3152595 5.98993047 2.68219822 9.63560356 0 15 C-0.66 15 -1.32 15 -2 15 C-2 10.71 -2 6.42 -2 2 C-1.34 2 -0.68 2 0 2 C0 1.34 0 0.68 0 0 Z " fill="#454AE1" transform="translate(23,44)"/>
<path d="M0 0 C3.465 1.485 3.465 1.485 7 3 C7.125 6.375 7.125 6.375 7 10 C6.34 10.66 5.68 11.32 5 12 C4.01 12 3.02 12 2 12 C2 10.68 2 9.36 2 8 C1.34 8 0.68 8 0 8 C0 7.01 0 6.02 0 5 C0.66 5 1.32 5 2 5 C2 4.01 2 3.02 2 2 C1.34 2 0.68 2 0 2 C0 1.34 0 0.68 0 0 Z " fill="#3E52DC" transform="translate(118,32)"/>
<path d="M0 0 C1.65 0 3.3 0 5 0 C1.22583991 3.17372553 -2.73800212 5.79115507 -7 8.25 C-7.90492187 8.79527344 -7.90492187 8.79527344 -8.828125 9.3515625 C-12.33430062 11.37904666 -14.92942851 12.61387434 -19 12 C-20.8125 10.5 -20.8125 10.5 -22 9 C-21.28328125 9.21269531 -20.5665625 9.42539063 -19.828125 9.64453125 C-16.33556738 10.08351294 -14.82941893 9.32401755 -11.75 7.6875 C-10.87859375 7.23761719 -10.0071875 6.78773437 -9.109375 6.32421875 C-6.87000169 5.17312559 -6.87000169 5.17312559 -6 3 C-2.9375 2.375 -2.9375 2.375 0 2 C0 1.34 0 0.68 0 0 Z " fill="#492BB0" transform="translate(46,79)"/>
<path d="M0 0 C-0.495 0.433125 -0.99 0.86625 -1.5 1.3125 C-3.33218192 2.99740483 -3.33218192 2.99740483 -3 6 C-5.64 6 -8.28 6 -11 6 C-10.85899143 8.27113803 -10.71203245 10.54190725 -10.5625 12.8125 C-10.48128906 14.07707031 -10.40007813 15.34164062 -10.31640625 16.64453125 C-10.12815453 19.99181893 -10.12815453 19.99181893 -9 23 C-9.99 22.67 -10.98 22.34 -12 22 C-13.19820733 10.04455354 -13.19820733 10.04455354 -12 5 C-9.13648688 1.67998479 -4.43112992 -2.21556496 0 0 Z " fill="#4C39B5" transform="translate(33,65)"/>
<path d="M0 0 C4.50802601 1.25805377 7.4912812 2.90407165 11 6 C9.02 6.99 9.02 6.99 7 8 C6.67 6.68 6.34 5.36 6 4 C5.34 4.66 4.68 5.32 4 6 C3.01 6.33 2.02 6.66 1 7 C0.34 6.67 -0.32 6.34 -1 6 C-1.33 6.66 -1.66 7.32 -2 8 C-2.66 7.34 -3.32 6.68 -4 6 C-3.01 5.67 -2.02 5.34 -1 5 C-0.67 3.35 -0.34 1.7 0 0 Z " fill="#4549E6" transform="translate(85,48)"/>
<path d="M0 0 C0.33 0.99 0.66 1.98 1 3 C0.01 3 -0.98 3 -2 3 C-2 5.31 -2 7.62 -2 10 C-3.65 10.66 -5.3 11.32 -7 12 C-7 10.68 -7 9.36 -7 8 C-7.99 7.34 -8.98 6.68 -10 6 C-6.7 4.02 -3.4 2.04 0 0 Z " fill="#444AE5" transform="translate(66,44)"/>
<path d="M0 0 C0.99 0 1.98 0 3 0 C3 0.66 3 1.32 3 2 C5.97 2.495 5.97 2.495 9 3 C9 3.99 9 4.98 9 6 C3.375 8.125 3.375 8.125 0 7 C0 4.66666667 0 2.33333333 0 0 Z " fill="#3263F1" transform="translate(88,17)"/>
<path d="M0 0 C0.928125 0.20625 1.85625 0.4125 2.8125 0.625 C3.1425 1.945 3.4725 3.265 3.8125 4.625 C1.875 5.1875 1.875 5.1875 -0.1875 5.625 C-0.5175 5.295 -0.8475 4.965 -1.1875 4.625 C-1.5175 5.285 -1.8475 5.945 -2.1875 6.625 C-2.8475 6.625 -3.5075 6.625 -4.1875 6.625 C-4.1875 5.305 -4.1875 3.985 -4.1875 2.625 C-4.8475 2.295 -5.5075 1.965 -6.1875 1.625 C-3.1875 -0.375 -3.1875 -0.375 0 0 Z " fill="#404FDB" transform="translate(74.1875,41.375)"/>
<path d="M0 0 C1.65 0 3.3 0 5 0 C5.66 1.32 6.32 2.64 7 4 C8.32 4 9.64 4 11 4 C10.34 5.32 9.68 6.64 9 8 C7.0625 7.625 7.0625 7.625 5 7 C4.67 6.34 4.34 5.68 4 5 C3.34 5 2.68 5 2 5 C1.34 3.35 0.68 1.7 0 0 Z " fill="#562FD9" transform="translate(105,80)"/>
<path d="M0 0 C1.2065625 0.0309375 1.2065625 0.0309375 2.4375 0.0625 C3.0975 1.3825 3.7575 2.7025 4.4375 4.0625 C2.4375 6.0625 2.4375 6.0625 -0.1875 6.1875 C-0.97125 6.14625 -1.755 6.105 -2.5625 6.0625 C-2.94468767 4.40635343 -3.27645102 2.73792976 -3.5625 1.0625 C-2.5625 0.0625 -2.5625 0.0625 0 0 Z " fill="#0A0816" transform="translate(196.5625,40.9375)"/>
<path d="M0 0 C-0.98041419 2.45103548 -1.6513818 3.76758786 -3.875 5.25 C-6 6 -6 6 -10 6 C-10 5.34 -10 4.68 -10 4 C-9.34 4 -8.68 4 -8 4 C-8.33 3.01 -8.66 2.02 -9 1 C-5.57367167 -0.61798838 -3.61944899 -1.34053666 0 0 Z " fill="#404DD8" transform="translate(52,42)"/>
<path d="M0 0 C0 0.66 0 1.32 0 2 C-0.804375 2.61875 -1.60875 3.2375 -2.4375 3.875 C-5.03064129 6.02540985 -5.65220835 6.75394458 -6 10 C-6.5878125 9.2265625 -6.5878125 9.2265625 -7.1875 8.4375 C-8.0846875 7.7259375 -8.0846875 7.7259375 -9 7 C-11.65466049 7.23043864 -11.65466049 7.23043864 -14 8 C-4.57142857 0 -4.57142857 0 0 0 Z " fill="#4944C9" transform="translate(52,53)"/>
<path d="M0 0 C4.50802601 1.25805377 7.4912812 2.90407165 11 6 C8.03 5.505 8.03 5.505 5 5 C5 5.66 5 6.32 5 7 C3.68 7.33 2.36 7.66 1 8 C0.34 7.01 -0.32 6.02 -1 5 C2 4 2 4 3 4 C3 3.34 3 2.68 3 2 C2.01 2 1.02 2 0 2 C0 1.34 0 0.68 0 0 Z " fill="#4641CE" transform="translate(97,55)"/>
<path d="M0 0 C2.45049229 1.28093915 4.01450059 2.31633406 5.75 4.4375 C2.28058454 3.97927532 -0.92395049 3.54618317 -4.25 2.4375 C-5.24 3.0975 -6.23 3.7575 -7.25 4.4375 C-8.24 4.1075 -9.23 3.7775 -10.25 3.4375 C-4.1408927 -0.71669297 -4.1408927 -0.71669297 0 0 Z " fill="#4D34B8" transform="translate(75.25,76.5625)"/>
<path d="M0 0 C0.66 0.33 1.32 0.66 2 1 C1.01 1.66 0.02 2.32 -1 3 C-1.16669318 6.45828022 -1.16669318 6.45828022 -1 10 C-1.33 10.99 -1.66 11.98 -2 13 C-2.66 13 -3.32 13 -4 13 C-4 9.37 -4 5.74 -4 2 C-2.68 1.34 -1.36 0.68 0 0 Z " fill="#4A55C9" transform="translate(25,33)"/>
<path d="M0 0 C2.475 0.99 2.475 0.99 5 2 C5 5.3 5 8.6 5 12 C4.34 11.67 3.68 11.34 3 11 C3.061875 10.236875 3.12375 9.47375 3.1875 8.6875 C2.96466081 5.49347163 2.26680076 5.0779007 0 3 C0 2.01 0 1.02 0 0 Z " fill="#5334D8" transform="translate(118,75)"/>
<path d="M0 0 C-0.6875 1.9375 -0.6875 1.9375 -2 4 C-4.625 4.75 -4.625 4.75 -7 5 C-7.33 4.34 -7.66 3.68 -8 3 C-5.53387212 -0.1151089 -3.89156016 -0.31553191 0 0 Z " fill="#3561F2" transform="translate(56,20)"/>
<path d="M0 0 C3.37503669 1.1858237 5.64722731 2.27573689 8 5 C6.02 6.32 4.04 7.64 2 9 C1.34 8.67 0.68 8.34 0 8 C1.32 7.34 2.64 6.68 4 6 C4 5.01 4 4.02 4 3 C2.68 2.34 1.36 1.68 0 1 C0 0.67 0 0.34 0 0 Z " fill="#4924AC" transform="translate(100,92)"/>
<path d="M0 0 C3.465 1.98 3.465 1.98 7 4 C6.67 5.32 6.34 6.64 6 8 C4.02 7.01 2.04 6.02 0 5 C0 3.35 0 1.7 0 0 Z " fill="#572BDD" transform="translate(23,82)"/>
<path d="M0 0 C0.33 0.66 0.66 1.32 1 2 C-1 5 -1 5 -2.9453125 5.51171875 C-3.66460937 5.56972656 -4.38390625 5.62773437 -5.125 5.6875 C-7.043125 5.8421875 -7.043125 5.8421875 -9 6 C-6.11912454 3.59927045 -3.43595166 1.52708963 0 0 Z " fill="#3D68DC" transform="translate(67,9)"/>
<path d="M0 0 C0.33 0.99 0.66 1.98 1 3 C-0.65 3.33 -2.3 3.66 -4 4 C-4 4.66 -4 5.32 -4 6 C-5.98 6.33 -7.96 6.66 -10 7 C-7.2180632 3.72713318 -3.72045933 2.03572303 0 0 Z " fill="#474BC8" transform="translate(66,44)"/>
<path d="M0 0 C1.65 0 3.3 0 5 0 C1.39042389 3.2910841 -1.12637153 4.54663921 -6 5 C-6 4.34 -6 3.68 -6 3 C-4.02 2.67 -2.04 2.34 0 2 C0 1.34 0 0.68 0 0 Z " fill="#472EBD" transform="translate(46,79)"/>
<path d="M0 0 C-3.96 1.98 -7.92 3.96 -12 6 C-12 5.34 -12 4.68 -12 4 C-11.34 4 -10.68 4 -10 4 C-10 3.34 -10 2.68 -10 2 C-3.375 -1.125 -3.375 -1.125 0 0 Z " fill="#4A38B4" transform="translate(63,73)"/>
<path d="M0 0 C2.64 0.99 5.28 1.98 8 3 C8 3.66 8 4.32 8 5 C7.0925 4.814375 6.185 4.62875 5.25 4.4375 C2.31685676 4.04265379 0.7355343 4.05308428 -2 5 C-1.34 3.35 -0.68 1.7 0 0 Z " fill="#453BC3" transform="translate(70,64)"/>
<path d="M0 0 C4.50802601 1.25805377 7.4912812 2.90407165 11 6 C9.02 6.99 9.02 6.99 7 8 C6.6596875 7.1028125 6.6596875 7.1028125 6.3125 6.1875 C4.66463631 3.44106051 2.76545517 2.52827786 0 1 C0 0.67 0 0.34 0 0 Z " fill="#4646C5" transform="translate(85,48)"/>
<path d="M0 0 C0.99 0.33 1.98 0.66 3 1 C2.67 2.65 2.34 4.3 2 6 C1.01 6.33 0.02 6.66 -1 7 C-1.33 6.01 -1.66 5.02 -2 4 C-1.34 4 -0.68 4 0 4 C0 2.68 0 1.36 0 0 Z " fill="#552ED4" transform="translate(34,81)"/>
<path d="M0 0 C3.1875 0.6875 3.1875 0.6875 6 2 C6.33 2.66 6.66 3.32 7 4 C3.37 3.67 -0.26 3.34 -4 3 C-2.68 2.01 -1.36 1.02 0 0 Z " fill="#3C67D0" transform="translate(72,6)"/>
<path d="M0 0 C1.32 0 2.64 0 4 0 C4 0.99 4 1.98 4 3 C2.02 3.66 0.04 4.32 -2 5 C-2.66 4.34 -3.32 3.68 -4 3 C-3.01 2.67 -2.02 2.34 -1 2 C-0.67 1.34 -0.34 0.68 0 0 Z " fill="#060413" transform="translate(171,63)"/>
<path d="M0 0 C0 0.66 0 1.32 0 2 C-0.66 2.66 -1.32 3.32 -2 4 C-1.01 5.485 -1.01 5.485 0 7 C-2.475 6.01 -2.475 6.01 -5 5 C-5 4.01 -5 3.02 -5 2 C-2 0 -2 0 0 0 Z " fill="#4C2DA8" transform="translate(44,93)"/>
<path d="M0 0 C0.99 0 1.98 0 3 0 C3 1.32 3 2.64 3 4 C1.02 4.33 -0.96 4.66 -3 5 C-1.125 1.125 -1.125 1.125 0 0 Z " fill="#03010E" transform="translate(262,39)"/>
<path d="M0 0 C1 3 1 3 0 6 C-2.475 5.01 -2.475 5.01 -5 4 C-3.36587557 2.29159719 -2.13093906 1.06546953 0 0 Z " fill="#3D5CD8" transform="translate(39,25)"/>
<path d="M0 0 C0.66 0.33 1.32 0.66 2 1 C0.02579865 3.52259061 -0.96745642 3.9929808 -4.1875 4.6875 C-5.5796875 4.8421875 -5.5796875 4.8421875 -7 5 C-2.25 1.125 -2.25 1.125 0 0 Z " fill="#5028AB" transform="translate(51,88)"/>
</svg>
